<svg width="33" height="33" viewBox="0 0 33 33" fill="none" xmlns="http://www.w3.org/2000/svg">
<path d="M20.75 20.75C23.0972 20.75 25 18.8472 25 16.5C25 14.1528 23.0972 12.25 20.75 12.25C18.4028 12.25 16.5 14.1528 16.5 16.5C16.5 18.8472 18.4028 20.75 20.75 20.75Z" stroke="black" stroke-width="2" stroke-linecap="round" stroke-linejoin="round"/>
<path d="M16.5 12.25V3.75H12.25C11.1228 3.75 10.0418 4.19777 9.2448 4.9948C8.44777 5.79183 8 6.87283 8 8C8 9.12717 8.44777 10.2082 9.2448 11.0052C10.0418 11.8022 11.1228 12.25 12.25 12.25H16.5Z" stroke="black" stroke-width="2" stroke-linecap="round" stroke-linejoin="round"/>
<path d="M16.5 20.75V12.25H12.25C11.1228 12.25 10.0418 12.6978 9.2448 13.4948C8.44777 14.2918 8 15.3728 8 16.5C8 17.6272 8.44777 18.7082 9.2448 19.5052C10.0418 20.3022 11.1228 20.75 12.25 20.75H16.5Z" stroke="black" stroke-width="2" stroke-linecap="round" stroke-linejoin="round"/>
<path d="M16.5 12.25V3.75H20.75C21.8772 3.75 22.9582 4.19777 23.7552 4.9948C24.5522 5.79183 25 6.87283 25 8C25 9.12717 24.5522 10.2082 23.7552 11.0052C22.9582 11.8022 21.8772 12.25 20.75 12.25H16.5Z" stroke="black" stroke-width="2" stroke-linecap="round" stroke-linejoin="round"/>
<path d="M16.5 20.75V25C16.5 25.8406 16.2507 26.6623 15.7837 27.3612C15.3168 28.0601 14.653 28.6048 13.8764 28.9265C13.0998 29.2482 12.2453 29.3323 11.4209 29.1683C10.5964 29.0043 9.83917 28.5996 9.2448 28.0052C8.65042 27.4108 8.24565 26.6536 8.08166 25.8291C7.91768 25.0047 8.00184 24.1502 8.32351 23.3736C8.64519 22.597 9.18992 21.9332 9.88883 21.4663C10.5877 20.9993 11.4094 20.75 12.25 20.75H16.5Z" stroke="black" stroke-width="2" stroke-linecap="round" stroke-linejoin="round"/>
</svg>
