<svg viewBox="0 0 33 32" fill="none" xmlns="http://www.w3.org/2000/svg">
<path d="M16.5 21C19.2614 21 21.5 18.7614 21.5 16C21.5 13.2386 19.2614 11 16.5 11C13.7386 11 11.5 13.2386 11.5 16C11.5 18.7614 13.7386 21 16.5 21Z" stroke="black" stroke-width="2" stroke-miterlimit="10"/>
<path d="M22 4.5H11C7.68629 4.5 5 7.18629 5 10.5V21.5C5 24.8137 7.68629 27.5 11 27.5H22C25.3137 27.5 28 24.8137 28 21.5V10.5C28 7.18629 25.3137 4.5 22 4.5Z" stroke="black" stroke-width="2" stroke-linecap="round" stroke-linejoin="round"/>
<path d="M23 11C23.8284 11 24.5 10.3284 24.5 9.5C24.5 8.67157 23.8284 8 23 8C22.1716 8 21.5 8.67157 21.5 9.5C21.5 10.3284 22.1716 11 23 11Z" fill="black"/>
</svg>
