<svg width="33" height="32" viewBox="0 0 33 32" fill="none" xmlns="http://www.w3.org/2000/svg">
<path d="M27 4.5H6C5.44772 4.5 5 4.94772 5 5.5V26.5C5 27.0523 5.44772 27.5 6 27.5H27C27.5523 27.5 28 27.0523 28 26.5V5.5C28 4.94772 27.5523 4.5 27 4.5Z" stroke="black" stroke-width="2" stroke-linecap="round" stroke-linejoin="round"/>
<path d="M15.5 14V22" stroke="black" stroke-width="2" stroke-linecap="round" stroke-linejoin="round"/>
<path d="M11.5 14V22" stroke="black" stroke-width="2" stroke-linecap="round" stroke-linejoin="round"/>
<path d="M15.5 17.5C15.5 16.5717 15.8687 15.6815 16.5251 15.0251C17.1815 14.3687 18.0717 14 19 14C19.9283 14 20.8185 14.3687 21.4749 15.0251C22.1313 15.6815 22.5 16.5717 22.5 17.5V22" stroke="black" stroke-width="2" stroke-linecap="round" stroke-linejoin="round"/>
<path d="M11.5 11.5C12.3284 11.5 13 10.8284 13 10C13 9.17157 12.3284 8.5 11.5 8.5C10.6716 8.5 10 9.17157 10 10C10 10.8284 10.6716 11.5 11.5 11.5Z" fill="black"/>
</svg>
